<svg aria-roledescription="er" role="graphics-document document" viewBox="0 0 517.234375 951.8359375" style="max-width: 517.234px; background-color: white;" xmlns:xlink="http://www.w3.org/1999/xlink" xmlns="http://www.w3.org/2000/svg" width="100%" id="my-svg"><style>#my-svg{font-family:"trebuchet ms",verdana,arial,sans-serif;font-size:16px;fill:#333;}#my-svg .error-icon{fill:#552222;}#my-svg .error-text{fill:#552222;stroke:#552222;}#my-svg .edge-thickness-normal{stroke-width:1px;}#my-svg .edge-thickness-thick{stroke-width:3.5px;}#my-svg .edge-pattern-solid{stroke-dasharray:0;}#my-svg .edge-thickness-invisible{stroke-width:0;fill:none;}#my-svg .edge-pattern-dashed{stroke-dasharray:3;}#my-svg .edge-pattern-dotted{stroke-dasharray:2;}#my-svg .marker{fill:#333333;stroke:#333333;}#my-svg .marker.cross{stroke:#333333;}#my-svg svg{font-family:"trebuchet ms",verdana,arial,sans-serif;font-size:16px;}#my-svg p{margin:0;}#my-svg .entityBox{fill:#ECECFF;stroke:#9370DB;}#my-svg .attributeBoxOdd{fill:#ffffff;stroke:#9370DB;}#my-svg .attributeBoxEven{fill:#f2f2f2;stroke:#9370DB;}#my-svg .relationshipLabelBox{fill:hsl(80, 100%, 96.2745098039%);opacity:0.7;background-color:hsl(80, 100%, 96.2745098039%);}#my-svg .relationshipLabelBox rect{opacity:0.5;}#my-svg .relationshipLine{stroke:#333333;}#my-svg .entityTitleText{text-anchor:middle;font-size:18px;fill:#333;}#my-svg #MD_PARENT_START{fill:#f5f5f5!important;stroke:#333333!important;stroke-width:1;}#my-svg #MD_PARENT_END{fill:#f5f5f5!important;stroke:#333333!important;stroke-width:1;}#my-svg :root{--mermaid-font-family:"trebuchet ms",verdana,arial,sans-serif;}</style><g/><defs><marker orient="auto" markerHeight="240" markerWidth="190" refY="7" refX="0" id="MD_PARENT_START"><path d="M 18,7 L9,13 L1,7 L9,1 Z"/></marker></defs><defs><marker orient="auto" markerHeight="28" markerWidth="20" refY="7" refX="19" id="MD_PARENT_END"><path d="M 18,7 L9,13 L1,7 L9,1 Z"/></marker></defs><defs><marker orient="auto" markerHeight="18" markerWidth="18" refY="9" refX="0" id="ONLY_ONE_START"><path d="M9,0 L9,18 M15,0 L15,18" fill="none" stroke="gray"/></marker></defs><defs><marker orient="auto" markerHeight="18" markerWidth="18" refY="9" refX="18" id="ONLY_ONE_END"><path d="M3,0 L3,18 M9,0 L9,18" fill="none" stroke="gray"/></marker></defs><defs><marker orient="auto" markerHeight="18" markerWidth="30" refY="9" refX="0" id="ZERO_OR_ONE_START"><circle r="6" cy="9" cx="21" fill="white" stroke="gray"/><path d="M9,0 L9,18" fill="none" stroke="gray"/></marker></defs><defs><marker orient="auto" markerHeight="18" markerWidth="30" refY="9" refX="30" id="ZERO_OR_ONE_END"><circle r="6" cy="9" cx="9" fill="white" stroke="gray"/><path d="M21,0 L21,18" fill="none" stroke="gray"/></marker></defs><defs><marker orient="auto" markerHeight="36" markerWidth="45" refY="18" refX="18" id="ONE_OR_MORE_START"><path d="M0,18 Q 18,0 36,18 Q 18,36 0,18 M42,9 L42,27" fill="none" stroke="gray"/></marker></defs><defs><marker orient="auto" markerHeight="36" markerWidth="45" refY="18" refX="27" id="ONE_OR_MORE_END"><path d="M3,9 L3,27 M9,18 Q27,0 45,18 Q27,36 9,18" fill="none" stroke="gray"/></marker></defs><defs><marker orient="auto" markerHeight="36" markerWidth="57" refY="18" refX="18" id="ZERO_OR_MORE_START"><circle r="6" cy="18" cx="48" fill="white" stroke="gray"/><path d="M0,18 Q18,0 36,18 Q18,36 0,18" fill="none" stroke="gray"/></marker></defs><defs><marker orient="auto" markerHeight="36" markerWidth="57" refY="18" refX="39" id="ZERO_OR_MORE_END"><circle r="6" cy="18" cx="9" fill="white" stroke="gray"/><path d="M21,18 Q39,0 57,18 Q39,36 21,18" fill="none" stroke="gray"/></marker></defs><path style="stroke: gray; fill: none;" marker-start="url(#ONLY_ONE_START)" marker-end="url(#ZERO_OR_MORE_END)" d="M143.188,220.551L143.188,228.884C143.188,237.217,143.188,253.884,143.188,270.551C143.188,287.217,143.188,303.884,143.188,312.217L143.188,320.551" class="er relationshipLine"/><path style="stroke: gray; fill: none;" marker-start="url(#ONLY_ONE_START)" marker-end="url(#ZERO_OR_MORE_END)" d="M143.188,697.744L143.188,706.077C143.188,714.411,143.188,731.077,153.639,747.888C164.09,764.698,184.992,781.651,195.443,790.128L205.895,798.605" class="er relationshipLine"/><path style="stroke: gray; fill: none;" marker-start="url(#ONLY_ONE_START)" marker-end="url(#ZERO_OR_MORE_END)" d="M431.805,576.239L431.805,604.823C431.805,633.408,431.805,690.576,421.354,727.637C410.902,764.698,390,781.651,379.549,790.128L369.098,798.605" class="er relationshipLine"/><path style="stroke: gray; fill: none;" marker-start="url(#ONLY_ONE_START)" marker-end="url(#ZERO_OR_MORE_END)" d="M431.805,198.459L431.805,210.474C431.805,222.49,431.805,246.52,431.805,287.12C431.805,327.719,431.805,384.887,431.805,413.472L431.805,442.056" class="er relationshipLine"/><g transform="translate(73.28125,20 )" id="entity-Course-e6435c0c-5f73-5cd3-80c6-be59c059830f"><rect height="200.55078601837158" width="139.8125" y="0" x="0" class="er entityBox"/><text style="dominant-baseline: middle; text-anchor: middle; font-size: 12px;" transform="translate(69.90625,12)" y="0" x="0" id="text-entity-Course-e6435c0c-5f73-5cd3-80c6-be59c059830f" class="er entityLabel">Course</text><rect height="22" width="51.640625" y="24" x="0" class="er attributeBoxOdd"/><text style="dominant-baseline: middle; font-size: 10.2px;" transform="translate(5,35)" y="0" x="0" id="text-entity-Course-e6435c0c-5f73-5cd3-80c6-be59c059830f-attr-1-type" class="er entityLabel">int</text><rect height="22" width="66.609375" y="24" x="51.640625" class="er attributeBoxOdd"/><text style="dominant-baseline: middle; font-size: 10.2px;" transform="translate(56.640625,35)" y="0" x="0" id="text-entity-Course-e6435c0c-5f73-5cd3-80c6-be59c059830f-attr-1-name" class="er entityLabel">id</text><rect height="22" width="21.5625" y="24" x="118.25" class="er attributeBoxOdd"/><text style="dominant-baseline: middle; font-size: 10.2px;" transform="translate(123.25,35)" y="0" x="0" id="text-entity-Course-e6435c0c-5f73-5cd3-80c6-be59c059830f-attr-1-key" class="er entityLabel">PK</text><rect height="22.091797828674316" width="51.640625" y="46" x="0" class="er attributeBoxEven"/><text style="dominant-baseline: middle; font-size: 10.2px;" transform="translate(5,57.04589891433716)" y="0" x="0" id="text-entity-Course-e6435c0c-5f73-5cd3-80c6-be59c059830f-attr-2-type" class="er entityLabel">string</text><rect height="22.091797828674316" width="66.609375" y="46" x="51.640625" class="er attributeBoxEven"/><text style="dominant-baseline: middle; font-size: 10.2px;" transform="translate(56.640625,57.04589891433716)" y="0" x="0" id="text-entity-Course-e6435c0c-5f73-5cd3-80c6-be59c059830f-attr-2-name" class="er entityLabel">subjectCode</text><rect height="22.091797828674316" width="21.5625" y="46" x="118.25" class="er attributeBoxEven"/><text style="dominant-baseline: middle; font-size: 10.2px;" transform="translate(123.25,57.04589891433716)" y="0" x="0" id="text-entity-Course-e6435c0c-5f73-5cd3-80c6-be59c059830f-attr-2-key" class="er entityLabel"/><rect height="22.091797828674316" width="51.640625" y="68.09179782867432" x="0" class="er attributeBoxOdd"/><text style="dominant-baseline: middle; font-size: 10.2px;" transform="translate(5,79.13769674301147)" y="0" x="0" id="text-entity-Course-e6435c0c-5f73-5cd3-80c6-be59c059830f-attr-3-type" class="er entityLabel">string</text><rect height="22.091797828674316" width="66.609375" y="68.09179782867432" x="51.640625" class="er attributeBoxOdd"/><text style="dominant-baseline: middle; font-size: 10.2px;" transform="translate(56.640625,79.13769674301147)" y="0" x="0" id="text-entity-Course-e6435c0c-5f73-5cd3-80c6-be59c059830f-attr-3-name" class="er entityLabel">courseCode</text><rect height="22.091797828674316" width="21.5625" y="68.09179782867432" x="118.25" class="er attributeBoxOdd"/><text style="dominant-baseline: middle; font-size: 10.2px;" transform="translate(123.25,79.13769674301147)" y="0" x="0" id="text-entity-Course-e6435c0c-5f73-5cd3-80c6-be59c059830f-attr-3-key" class="er entityLabel"/><rect height="22.091797828674316" width="51.640625" y="90.18359565734863" x="0" class="er attributeBoxEven"/><text style="dominant-baseline: middle; font-size: 10.2px;" transform="translate(5,101.22949457168579)" y="0" x="0" id="text-entity-Course-e6435c0c-5f73-5cd3-80c6-be59c059830f-attr-4-type" class="er entityLabel">string</text><rect height="22.091797828674316" width="66.609375" y="90.18359565734863" x="51.640625" class="er attributeBoxEven"/><text style="dominant-baseline: middle; font-size: 10.2px;" transform="translate(56.640625,101.22949457168579)" y="0" x="0" id="text-entity-Course-e6435c0c-5f73-5cd3-80c6-be59c059830f-attr-4-name" class="er entityLabel">title</text><rect height="22.091797828674316" width="21.5625" y="90.18359565734863" x="118.25" class="er attributeBoxEven"/><text style="dominant-baseline: middle; font-size: 10.2px;" transform="translate(123.25,101.22949457168579)" y="0" x="0" id="text-entity-Course-e6435c0c-5f73-5cd3-80c6-be59c059830f-attr-4-key" class="er entityLabel"/><rect height="22.091797828674316" width="51.640625" y="112.27539348602295" x="0" class="er attributeBoxOdd"/><text style="dominant-baseline: middle; font-size: 10.2px;" transform="translate(5,123.32129240036011)" y="0" x="0" id="text-entity-Course-e6435c0c-5f73-5cd3-80c6-be59c059830f-attr-5-type" class="er entityLabel">string</text><rect height="22.091797828674316" width="66.609375" y="112.27539348602295" x="51.640625" class="er attributeBoxOdd"/><text style="dominant-baseline: middle; font-size: 10.2px;" transform="translate(56.640625,123.32129240036011)" y="0" x="0" id="text-entity-Course-e6435c0c-5f73-5cd3-80c6-be59c059830f-attr-5-name" class="er entityLabel">shortTitle</text><rect height="22.091797828674316" width="21.5625" y="112.27539348602295" x="118.25" class="er attributeBoxOdd"/><text style="dominant-baseline: middle; font-size: 10.2px;" transform="translate(123.25,123.32129240036011)" y="0" x="0" id="text-entity-Course-e6435c0c-5f73-5cd3-80c6-be59c059830f-attr-5-key" class="er entityLabel"/><rect height="22.091797828674316" width="51.640625" y="134.36719131469727" x="0" class="er attributeBoxEven"/><text style="dominant-baseline: middle; font-size: 10.2px;" transform="translate(5,145.41309022903442)" y="0" x="0" id="text-entity-Course-e6435c0c-5f73-5cd3-80c6-be59c059830f-attr-6-type" class="er entityLabel">string</text><rect height="22.091797828674316" width="66.609375" y="134.36719131469727" x="51.640625" class="er attributeBoxEven"/><text style="dominant-baseline: middle; font-size: 10.2px;" transform="translate(56.640625,145.41309022903442)" y="0" x="0" id="text-entity-Course-e6435c0c-5f73-5cd3-80c6-be59c059830f-attr-6-name" class="er entityLabel">description</text><rect height="22.091797828674316" width="21.5625" y="134.36719131469727" x="118.25" class="er attributeBoxEven"/><text style="dominant-baseline: middle; font-size: 10.2px;" transform="translate(123.25,145.41309022903442)" y="0" x="0" id="text-entity-Course-e6435c0c-5f73-5cd3-80c6-be59c059830f-attr-6-key" class="er entityLabel"/><rect height="22" width="51.640625" y="156.45898914337158" x="0" class="er attributeBoxOdd"/><text style="dominant-baseline: middle; font-size: 10.2px;" transform="translate(5,167.45898914337158)" y="0" x="0" id="text-entity-Course-e6435c0c-5f73-5cd3-80c6-be59c059830f-attr-7-type" class="er entityLabel">datetime</text><rect height="22" width="66.609375" y="156.45898914337158" x="51.640625" class="er attributeBoxOdd"/><text style="dominant-baseline: middle; font-size: 10.2px;" transform="translate(56.640625,167.45898914337158)" y="0" x="0" id="text-entity-Course-e6435c0c-5f73-5cd3-80c6-be59c059830f-attr-7-name" class="er entityLabel">createdAt</text><rect height="22" width="21.5625" y="156.45898914337158" x="118.25" class="er attributeBoxOdd"/><text style="dominant-baseline: middle; font-size: 10.2px;" transform="translate(123.25,167.45898914337158)" y="0" x="0" id="text-entity-Course-e6435c0c-5f73-5cd3-80c6-be59c059830f-attr-7-key" class="er entityLabel"/><rect height="22.091796875" width="51.640625" y="178.45898914337158" x="0" class="er attributeBoxEven"/><text style="dominant-baseline: middle; font-size: 10.2px;" transform="translate(5,189.50488758087158)" y="0" x="0" id="text-entity-Course-e6435c0c-5f73-5cd3-80c6-be59c059830f-attr-8-type" class="er entityLabel">datetime</text><rect height="22.091796875" width="66.609375" y="178.45898914337158" x="51.640625" class="er attributeBoxEven"/><text style="dominant-baseline: middle; font-size: 10.2px;" transform="translate(56.640625,189.50488758087158)" y="0" x="0" id="text-entity-Course-e6435c0c-5f73-5cd3-80c6-be59c059830f-attr-8-name" class="er entityLabel">updatedAt</text><rect height="22.091796875" width="21.5625" y="178.45898914337158" x="118.25" class="er attributeBoxEven"/><text style="dominant-baseline: middle; font-size: 10.2px;" transform="translate(123.25,189.50488758087158)" y="0" x="0" id="text-entity-Course-e6435c0c-5f73-5cd3-80c6-be59c059830f-attr-8-key" class="er entityLabel"/></g><g transform="translate(20,320.55078125 )" id="entity-ScheduledEvent-e1c00508-d1f2-52a7-b20e-5b5aca843e19"><rect height="377.1933708190918" width="246.375" y="0" x="0" class="er entityBox"/><text style="dominant-baseline: middle; text-anchor: middle; font-size: 12px;" transform="translate(123.1875,12)" y="0" x="0" id="text-entity-ScheduledEvent-e1c00508-d1f2-52a7-b20e-5b5aca843e19" class="er entityLabel">ScheduledEvent</text><rect height="22" width="51.640625" y="24" x="0" class="er attributeBoxOdd"/><text style="dominant-baseline: middle; font-size: 10.2px;" transform="translate(5,35)" y="0" x="0" id="text-entity-ScheduledEvent-e1c00508-d1f2-52a7-b20e-5b5aca843e19-attr-1-type" class="er entityLabel">int</text><rect height="22" width="173.171875" y="24" x="51.640625" class="er attributeBoxOdd"/><text style="dominant-baseline: middle; font-size: 10.2px;" transform="translate(56.640625,35)" y="0" x="0" id="text-entity-ScheduledEvent-e1c00508-d1f2-52a7-b20e-5b5aca843e19-attr-1-name" class="er entityLabel">id</text><rect height="22" width="21.5625" y="24" x="224.8125" class="er attributeBoxOdd"/><text style="dominant-baseline: middle; font-size: 10.2px;" transform="translate(229.8125,35)" y="0" x="0" id="text-entity-ScheduledEvent-e1c00508-d1f2-52a7-b20e-5b5aca843e19-attr-1-key" class="er entityLabel">PK</text><rect height="22.091797828674316" width="51.640625" y="46" x="0" class="er attributeBoxEven"/><text style="dominant-baseline: middle; font-size: 10.2px;" transform="translate(5,57.04589891433716)" y="0" x="0" id="text-entity-ScheduledEvent-e1c00508-d1f2-52a7-b20e-5b5aca843e19-attr-2-type" class="er entityLabel">string</text><rect height="22.091797828674316" width="173.171875" y="46" x="51.640625" class="er attributeBoxEven"/><text style="dominant-baseline: middle; font-size: 10.2px;" transform="translate(56.640625,57.04589891433716)" y="0" x="0" id="text-entity-ScheduledEvent-e1c00508-d1f2-52a7-b20e-5b5aca843e19-attr-2-name" class="er entityLabel">crn</text><rect height="22.091797828674316" width="21.5625" y="46" x="224.8125" class="er attributeBoxEven"/><text style="dominant-baseline: middle; font-size: 10.2px;" transform="translate(229.8125,57.04589891433716)" y="0" x="0" id="text-entity-ScheduledEvent-e1c00508-d1f2-52a7-b20e-5b5aca843e19-attr-2-key" class="er entityLabel"/><rect height="22.091797828674316" width="51.640625" y="68.09179782867432" x="0" class="er attributeBoxOdd"/><text style="dominant-baseline: middle; font-size: 10.2px;" transform="translate(5,79.13769674301147)" y="0" x="0" id="text-entity-ScheduledEvent-e1c00508-d1f2-52a7-b20e-5b5aca843e19-attr-3-type" class="er entityLabel">string</text><rect height="22.091797828674316" width="173.171875" y="68.09179782867432" x="51.640625" class="er attributeBoxOdd"/><text style="dominant-baseline: middle; font-size: 10.2px;" transform="translate(56.640625,79.13769674301147)" y="0" x="0" id="text-entity-ScheduledEvent-e1c00508-d1f2-52a7-b20e-5b5aca843e19-attr-3-name" class="er entityLabel">section</text><rect height="22.091797828674316" width="21.5625" y="68.09179782867432" x="224.8125" class="er attributeBoxOdd"/><text style="dominant-baseline: middle; font-size: 10.2px;" transform="translate(229.8125,79.13769674301147)" y="0" x="0" id="text-entity-ScheduledEvent-e1c00508-d1f2-52a7-b20e-5b5aca843e19-attr-3-key" class="er entityLabel"/><rect height="22.091797828674316" width="51.640625" y="90.18359565734863" x="0" class="er attributeBoxEven"/><text style="dominant-baseline: middle; font-size: 10.2px;" transform="translate(5,101.22949457168579)" y="0" x="0" id="text-entity-ScheduledEvent-e1c00508-d1f2-52a7-b20e-5b5aca843e19-attr-4-type" class="er entityLabel">string</text><rect height="22.091797828674316" width="173.171875" y="90.18359565734863" x="51.640625" class="er attributeBoxEven"/><text style="dominant-baseline: middle; font-size: 10.2px;" transform="translate(56.640625,101.22949457168579)" y="0" x="0" id="text-entity-ScheduledEvent-e1c00508-d1f2-52a7-b20e-5b5aca843e19-attr-4-name" class="er entityLabel">instructor</text><rect height="22.091797828674316" width="21.5625" y="90.18359565734863" x="224.8125" class="er attributeBoxEven"/><text style="dominant-baseline: middle; font-size: 10.2px;" transform="translate(229.8125,101.22949457168579)" y="0" x="0" id="text-entity-ScheduledEvent-e1c00508-d1f2-52a7-b20e-5b5aca843e19-attr-4-key" class="er entityLabel"/><rect height="22.091797828674316" width="51.640625" y="112.27539348602295" x="0" class="er attributeBoxOdd"/><text style="dominant-baseline: middle; font-size: 10.2px;" transform="translate(5,123.32129240036011)" y="0" x="0" id="text-entity-ScheduledEvent-e1c00508-d1f2-52a7-b20e-5b5aca843e19-attr-5-type" class="er entityLabel">string</text><rect height="22.091797828674316" width="173.171875" y="112.27539348602295" x="51.640625" class="er attributeBoxOdd"/><text style="dominant-baseline: middle; font-size: 10.2px;" transform="translate(56.640625,123.32129240036011)" y="0" x="0" id="text-entity-ScheduledEvent-e1c00508-d1f2-52a7-b20e-5b5aca843e19-attr-5-name" class="er entityLabel">credit</text><rect height="22.091797828674316" width="21.5625" y="112.27539348602295" x="224.8125" class="er attributeBoxOdd"/><text style="dominant-baseline: middle; font-size: 10.2px;" transform="translate(229.8125,123.32129240036011)" y="0" x="0" id="text-entity-ScheduledEvent-e1c00508-d1f2-52a7-b20e-5b5aca843e19-attr-5-key" class="er entityLabel"/><rect height="22.091797828674316" width="51.640625" y="134.36719131469727" x="0" class="er attributeBoxEven"/><text style="dominant-baseline: middle; font-size: 10.2px;" transform="translate(5,145.41309022903442)" y="0" x="0" id="text-entity-ScheduledEvent-e1c00508-d1f2-52a7-b20e-5b5aca843e19-attr-6-type" class="er entityLabel">string</text><rect height="22.091797828674316" width="173.171875" y="134.36719131469727" x="51.640625" class="er attributeBoxEven"/><text style="dominant-baseline: middle; font-size: 10.2px;" transform="translate(56.640625,145.41309022903442)" y="0" x="0" id="text-entity-ScheduledEvent-e1c00508-d1f2-52a7-b20e-5b5aca843e19-attr-6-name" class="er entityLabel">type</text><rect height="22.091797828674316" width="21.5625" y="134.36719131469727" x="224.8125" class="er attributeBoxEven"/><text style="dominant-baseline: middle; font-size: 10.2px;" transform="translate(229.8125,145.41309022903442)" y="0" x="0" id="text-entity-ScheduledEvent-e1c00508-d1f2-52a7-b20e-5b5aca843e19-attr-6-key" class="er entityLabel"/><rect height="22.091797828674316" width="51.640625" y="156.45898914337158" x="0" class="er attributeBoxOdd"/><text style="dominant-baseline: middle; font-size: 10.2px;" transform="translate(5,167.50488805770874)" y="0" x="0" id="text-entity-ScheduledEvent-e1c00508-d1f2-52a7-b20e-5b5aca843e19-attr-7-type" class="er entityLabel">string</text><rect height="22.091797828674316" width="173.171875" y="156.45898914337158" x="51.640625" class="er attributeBoxOdd"/><text style="dominant-baseline: middle; font-size: 10.2px;" transform="translate(56.640625,167.50488805770874)" y="0" x="0" id="text-entity-ScheduledEvent-e1c00508-d1f2-52a7-b20e-5b5aca843e19-attr-7-name" class="er entityLabel">term</text><rect height="22.091797828674316" width="21.5625" y="156.45898914337158" x="224.8125" class="er attributeBoxOdd"/><text style="dominant-baseline: middle; font-size: 10.2px;" transform="translate(229.8125,167.50488805770874)" y="0" x="0" id="text-entity-ScheduledEvent-e1c00508-d1f2-52a7-b20e-5b5aca843e19-attr-7-key" class="er entityLabel"/><rect height="22.091797828674316" width="51.640625" y="178.5507869720459" x="0" class="er attributeBoxEven"/><text style="dominant-baseline: middle; font-size: 10.2px;" transform="translate(5,189.59668588638306)" y="0" x="0" id="text-entity-ScheduledEvent-e1c00508-d1f2-52a7-b20e-5b5aca843e19-attr-8-type" class="er entityLabel">string</text><rect height="22.091797828674316" width="173.171875" y="178.5507869720459" x="51.640625" class="er attributeBoxEven"/><text style="dominant-baseline: middle; font-size: 10.2px;" transform="translate(56.640625,189.59668588638306)" y="0" x="0" id="text-entity-ScheduledEvent-e1c00508-d1f2-52a7-b20e-5b5aca843e19-attr-8-name" class="er entityLabel">days</text><rect height="22.091797828674316" width="21.5625" y="178.5507869720459" x="224.8125" class="er attributeBoxEven"/><text style="dominant-baseline: middle; font-size: 10.2px;" transform="translate(229.8125,189.59668588638306)" y="0" x="0" id="text-entity-ScheduledEvent-e1c00508-d1f2-52a7-b20e-5b5aca843e19-attr-8-key" class="er entityLabel"/><rect height="22.091797828674316" width="51.640625" y="200.64258480072021" x="0" class="er attributeBoxOdd"/><text style="dominant-baseline: middle; font-size: 10.2px;" transform="translate(5,211.68848371505737)" y="0" x="0" id="text-entity-ScheduledEvent-e1c00508-d1f2-52a7-b20e-5b5aca843e19-attr-9-type" class="er entityLabel">string</text><rect height="22.091797828674316" width="173.171875" y="200.64258480072021" x="51.640625" class="er attributeBoxOdd"/><text style="dominant-baseline: middle; font-size: 10.2px;" transform="translate(56.640625,211.68848371505737)" y="0" x="0" id="text-entity-ScheduledEvent-e1c00508-d1f2-52a7-b20e-5b5aca843e19-attr-9-name" class="er entityLabel">startTime</text><rect height="22.091797828674316" width="21.5625" y="200.64258480072021" x="224.8125" class="er attributeBoxOdd"/><text style="dominant-baseline: middle; font-size: 10.2px;" transform="translate(229.8125,211.68848371505737)" y="0" x="0" id="text-entity-ScheduledEvent-e1c00508-d1f2-52a7-b20e-5b5aca843e19-attr-9-key" class="er entityLabel"/><rect height="22.091797828674316" width="51.640625" y="222.73438262939453" x="0" class="er attributeBoxEven"/><text style="dominant-baseline: middle; font-size: 10.2px;" transform="translate(5,233.7802815437317)" y="0" x="0" id="text-entity-ScheduledEvent-e1c00508-d1f2-52a7-b20e-5b5aca843e19-attr-10-type" class="er entityLabel">string</text><rect height="22.091797828674316" width="173.171875" y="222.73438262939453" x="51.640625" class="er attributeBoxEven"/><text style="dominant-baseline: middle; font-size: 10.2px;" transform="translate(56.640625,233.7802815437317)" y="0" x="0" id="text-entity-ScheduledEvent-e1c00508-d1f2-52a7-b20e-5b5aca843e19-attr-10-name" class="er entityLabel">endTime</text><rect height="22.091797828674316" width="21.5625" y="222.73438262939453" x="224.8125" class="er attributeBoxEven"/><text style="dominant-baseline: middle; font-size: 10.2px;" transform="translate(229.8125,233.7802815437317)" y="0" x="0" id="text-entity-ScheduledEvent-e1c00508-d1f2-52a7-b20e-5b5aca843e19-attr-10-key" class="er entityLabel"/><rect height="22.091797828674316" width="51.640625" y="244.82618045806885" x="0" class="er attributeBoxOdd"/><text style="dominant-baseline: middle; font-size: 10.2px;" transform="translate(5,255.872079372406)" y="0" x="0" id="text-entity-ScheduledEvent-e1c00508-d1f2-52a7-b20e-5b5aca843e19-attr-11-type" class="er entityLabel">string</text><rect height="22.091797828674316" width="173.171875" y="244.82618045806885" x="51.640625" class="er attributeBoxOdd"/><text style="dominant-baseline: middle; font-size: 10.2px;" transform="translate(56.640625,255.872079372406)" y="0" x="0" id="text-entity-ScheduledEvent-e1c00508-d1f2-52a7-b20e-5b5aca843e19-attr-11-name" class="er entityLabel">additionalRegistrationRequirements</text><rect height="22.091797828674316" width="21.5625" y="244.82618045806885" x="224.8125" class="er attributeBoxOdd"/><text style="dominant-baseline: middle; font-size: 10.2px;" transform="translate(229.8125,255.872079372406)" y="0" x="0" id="text-entity-ScheduledEvent-e1c00508-d1f2-52a7-b20e-5b5aca843e19-attr-11-key" class="er entityLabel"/><rect height="22.091797828674316" width="51.640625" y="266.91797828674316" x="0" class="er attributeBoxEven"/><text style="dominant-baseline: middle; font-size: 10.2px;" transform="translate(5,277.9638772010803)" y="0" x="0" id="text-entity-ScheduledEvent-e1c00508-d1f2-52a7-b20e-5b5aca843e19-attr-12-type" class="er entityLabel">string</text><rect height="22.091797828674316" width="173.171875" y="266.91797828674316" x="51.640625" class="er attributeBoxEven"/><text style="dominant-baseline: middle; font-size: 10.2px;" transform="translate(56.640625,277.9638772010803)" y="0" x="0" id="text-entity-ScheduledEvent-e1c00508-d1f2-52a7-b20e-5b5aca843e19-attr-12-name" class="er entityLabel">url</text><rect height="22.091797828674316" width="21.5625" y="266.91797828674316" x="224.8125" class="er attributeBoxEven"/><text style="dominant-baseline: middle; font-size: 10.2px;" transform="translate(229.8125,277.9638772010803)" y="0" x="0" id="text-entity-ScheduledEvent-e1c00508-d1f2-52a7-b20e-5b5aca843e19-attr-12-key" class="er entityLabel"/><rect height="22.091797828674316" width="51.640625" y="289.0097761154175" x="0" class="er attributeBoxOdd"/><text style="dominant-baseline: middle; font-size: 10.2px;" transform="translate(5,300.05567502975464)" y="0" x="0" id="text-entity-ScheduledEvent-e1c00508-d1f2-52a7-b20e-5b5aca843e19-attr-13-type" class="er entityLabel">string</text><rect height="22.091797828674316" width="173.171875" y="289.0097761154175" x="51.640625" class="er attributeBoxOdd"/><text style="dominant-baseline: middle; font-size: 10.2px;" transform="translate(56.640625,300.05567502975464)" y="0" x="0" id="text-entity-ScheduledEvent-e1c00508-d1f2-52a7-b20e-5b5aca843e19-attr-13-name" class="er entityLabel">description</text><rect height="22.091797828674316" width="21.5625" y="289.0097761154175" x="224.8125" class="er attributeBoxOdd"/><text style="dominant-baseline: middle; font-size: 10.2px;" transform="translate(229.8125,300.05567502975464)" y="0" x="0" id="text-entity-ScheduledEvent-e1c00508-d1f2-52a7-b20e-5b5aca843e19-attr-13-key" class="er entityLabel"/><rect height="22" width="51.640625" y="311.1015739440918" x="0" class="er attributeBoxEven"/><text style="dominant-baseline: middle; font-size: 10.2px;" transform="translate(5,322.1015739440918)" y="0" x="0" id="text-entity-ScheduledEvent-e1c00508-d1f2-52a7-b20e-5b5aca843e19-attr-14-type" class="er entityLabel">int</text><rect height="22" width="173.171875" y="311.1015739440918" x="51.640625" class="er attributeBoxEven"/><text style="dominant-baseline: middle; font-size: 10.2px;" transform="translate(56.640625,322.1015739440918)" y="0" x="0" id="text-entity-ScheduledEvent-e1c00508-d1f2-52a7-b20e-5b5aca843e19-attr-14-name" class="er entityLabel">courseId</text><rect height="22" width="21.5625" y="311.1015739440918" x="224.8125" class="er attributeBoxEven"/><text style="dominant-baseline: middle; font-size: 10.2px;" transform="translate(229.8125,322.1015739440918)" y="0" x="0" id="text-entity-ScheduledEvent-e1c00508-d1f2-52a7-b20e-5b5aca843e19-attr-14-key" class="er entityLabel">FK</text><rect height="22" width="51.640625" y="333.1015739440918" x="0" class="er attributeBoxOdd"/><text style="dominant-baseline: middle; font-size: 10.2px;" transform="translate(5,344.1015739440918)" y="0" x="0" id="text-entity-ScheduledEvent-e1c00508-d1f2-52a7-b20e-5b5aca843e19-attr-15-type" class="er entityLabel">datetime</text><rect height="22" width="173.171875" y="333.1015739440918" x="51.640625" class="er attributeBoxOdd"/><text style="dominant-baseline: middle; font-size: 10.2px;" transform="translate(56.640625,344.1015739440918)" y="0" x="0" id="text-entity-ScheduledEvent-e1c00508-d1f2-52a7-b20e-5b5aca843e19-attr-15-name" class="er entityLabel">createdAt</text><rect height="22" width="21.5625" y="333.1015739440918" x="224.8125" class="er attributeBoxOdd"/><text style="dominant-baseline: middle; font-size: 10.2px;" transform="translate(229.8125,344.1015739440918)" y="0" x="0" id="text-entity-ScheduledEvent-e1c00508-d1f2-52a7-b20e-5b5aca843e19-attr-15-key" class="er entityLabel"/><rect height="22.091796875" width="51.640625" y="355.1015739440918" x="0" class="er attributeBoxEven"/><text style="dominant-baseline: middle; font-size: 10.2px;" transform="translate(5,366.1474723815918)" y="0" x="0" id="text-entity-ScheduledEvent-e1c00508-d1f2-52a7-b20e-5b5aca843e19-attr-16-type" class="er entityLabel">datetime</text><rect height="22.091796875" width="173.171875" y="355.1015739440918" x="51.640625" class="er attributeBoxEven"/><text style="dominant-baseline: middle; font-size: 10.2px;" transform="translate(56.640625,366.1474723815918)" y="0" x="0" id="text-entity-ScheduledEvent-e1c00508-d1f2-52a7-b20e-5b5aca843e19-attr-16-name" class="er entityLabel">updatedAt</text><rect height="22.091796875" width="21.5625" y="355.1015739440918" x="224.8125" class="er attributeBoxEven"/><text style="dominant-baseline: middle; font-size: 10.2px;" transform="translate(229.8125,366.1474723815918)" y="0" x="0" id="text-entity-ScheduledEvent-e1c00508-d1f2-52a7-b20e-5b5aca843e19-attr-16-key" class="er entityLabel"/></g><g transform="translate(205.89453125,797.744140625 )" id="entity-TimetableEvent-ab5aaf69-abf3-55fe-a589-2092c72f9286"><rect height="134.091796875" width="163.203125" y="0" x="0" class="er entityBox"/><text style="dominant-baseline: middle; text-anchor: middle; font-size: 12px;" transform="translate(81.6015625,12)" y="0" x="0" id="text-entity-TimetableEvent-ab5aaf69-abf3-55fe-a589-2092c72f9286" class="er entityLabel">TimetableEvent</text><rect height="22" width="51.640625" y="24" x="0" class="er attributeBoxOdd"/><text style="dominant-baseline: middle; font-size: 10.2px;" transform="translate(5,35)" y="0" x="0" id="text-entity-TimetableEvent-ab5aaf69-abf3-55fe-a589-2092c72f9286-attr-1-type" class="er entityLabel">int</text><rect height="22" width="90" y="24" x="51.640625" class="er attributeBoxOdd"/><text style="dominant-baseline: middle; font-size: 10.2px;" transform="translate(56.640625,35)" y="0" x="0" id="text-entity-TimetableEvent-ab5aaf69-abf3-55fe-a589-2092c72f9286-attr-1-name" class="er entityLabel">id</text><rect height="22" width="21.5625" y="24" x="141.640625" class="er attributeBoxOdd"/><text style="dominant-baseline: middle; font-size: 10.2px;" transform="translate(146.640625,35)" y="0" x="0" id="text-entity-TimetableEvent-ab5aaf69-abf3-55fe-a589-2092c72f9286-attr-1-key" class="er entityLabel">PK</text><rect height="22" width="51.640625" y="46" x="0" class="er attributeBoxEven"/><text style="dominant-baseline: middle; font-size: 10.2px;" transform="translate(5,57)" y="0" x="0" id="text-entity-TimetableEvent-ab5aaf69-abf3-55fe-a589-2092c72f9286-attr-2-type" class="er entityLabel">int</text><rect height="22" width="90" y="46" x="51.640625" class="er attributeBoxEven"/><text style="dominant-baseline: middle; font-size: 10.2px;" transform="translate(56.640625,57)" y="0" x="0" id="text-entity-TimetableEvent-ab5aaf69-abf3-55fe-a589-2092c72f9286-attr-2-name" class="er entityLabel">scheduledEventId</text><rect height="22" width="21.5625" y="46" x="141.640625" class="er attributeBoxEven"/><text style="dominant-baseline: middle; font-size: 10.2px;" transform="translate(146.640625,57)" y="0" x="0" id="text-entity-TimetableEvent-ab5aaf69-abf3-55fe-a589-2092c72f9286-attr-2-key" class="er entityLabel">FK</text><rect height="22" width="51.640625" y="68" x="0" class="er attributeBoxOdd"/><text style="dominant-baseline: middle; font-size: 10.2px;" transform="translate(5,79)" y="0" x="0" id="text-entity-TimetableEvent-ab5aaf69-abf3-55fe-a589-2092c72f9286-attr-3-type" class="er entityLabel">int</text><rect height="22" width="90" y="68" x="51.640625" class="er attributeBoxOdd"/><text style="dominant-baseline: middle; font-size: 10.2px;" transform="translate(56.640625,79)" y="0" x="0" id="text-entity-TimetableEvent-ab5aaf69-abf3-55fe-a589-2092c72f9286-attr-3-name" class="er entityLabel">timetableId</text><rect height="22" width="21.5625" y="68" x="141.640625" class="er attributeBoxOdd"/><text style="dominant-baseline: middle; font-size: 10.2px;" transform="translate(146.640625,79)" y="0" x="0" id="text-entity-TimetableEvent-ab5aaf69-abf3-55fe-a589-2092c72f9286-attr-3-key" class="er entityLabel">FK</text><rect height="22" width="51.640625" y="90" x="0" class="er attributeBoxEven"/><text style="dominant-baseline: middle; font-size: 10.2px;" transform="translate(5,101)" y="0" x="0" id="text-entity-TimetableEvent-ab5aaf69-abf3-55fe-a589-2092c72f9286-attr-4-type" class="er entityLabel">datetime</text><rect height="22" width="90" y="90" x="51.640625" class="er attributeBoxEven"/><text style="dominant-baseline: middle; font-size: 10.2px;" transform="translate(56.640625,101)" y="0" x="0" id="text-entity-TimetableEvent-ab5aaf69-abf3-55fe-a589-2092c72f9286-attr-4-name" class="er entityLabel">createdAt</text><rect height="22" width="21.5625" y="90" x="141.640625" class="er attributeBoxEven"/><text style="dominant-baseline: middle; font-size: 10.2px;" transform="translate(146.640625,101)" y="0" x="0" id="text-entity-TimetableEvent-ab5aaf69-abf3-55fe-a589-2092c72f9286-attr-4-key" class="er entityLabel"/><rect height="22.091796875" width="51.640625" y="112" x="0" class="er attributeBoxOdd"/><text style="dominant-baseline: middle; font-size: 10.2px;" transform="translate(5,123.0458984375)" y="0" x="0" id="text-entity-TimetableEvent-ab5aaf69-abf3-55fe-a589-2092c72f9286-attr-5-type" class="er entityLabel">datetime</text><rect height="22.091796875" width="90" y="112" x="51.640625" class="er attributeBoxOdd"/><text style="dominant-baseline: middle; font-size: 10.2px;" transform="translate(56.640625,123.0458984375)" y="0" x="0" id="text-entity-TimetableEvent-ab5aaf69-abf3-55fe-a589-2092c72f9286-attr-5-name" class="er entityLabel">updatedAt</text><rect height="22.091796875" width="21.5625" y="112" x="141.640625" class="er attributeBoxOdd"/><text style="dominant-baseline: middle; font-size: 10.2px;" transform="translate(146.640625,123.0458984375)" y="0" x="0" id="text-entity-TimetableEvent-ab5aaf69-abf3-55fe-a589-2092c72f9286-attr-5-key" class="er entityLabel"/></g><g transform="translate(366.375,442.0556640625 )" id="entity-Timetable-e66100cc-8d20-57f9-92ba-4794626e2169"><rect height="134.18359470367432" width="130.859375" y="0" x="0" class="er entityBox"/><text style="dominant-baseline: middle; text-anchor: middle; font-size: 12px;" transform="translate(65.4296875,12)" y="0" x="0" id="text-entity-Timetable-e66100cc-8d20-57f9-92ba-4794626e2169" class="er entityLabel">Timetable</text><rect height="22" width="51.640625" y="24" x="0" class="er attributeBoxOdd"/><text style="dominant-baseline: middle; font-size: 10.2px;" transform="translate(5,35)" y="0" x="0" id="text-entity-Timetable-e66100cc-8d20-57f9-92ba-4794626e2169-attr-1-type" class="er entityLabel">int</text><rect height="22" width="57.65625" y="24" x="51.640625" class="er attributeBoxOdd"/><text style="dominant-baseline: middle; font-size: 10.2px;" transform="translate(56.640625,35)" y="0" x="0" id="text-entity-Timetable-e66100cc-8d20-57f9-92ba-4794626e2169-attr-1-name" class="er entityLabel">id</text><rect height="22" width="21.5625" y="24" x="109.296875" class="er attributeBoxOdd"/><text style="dominant-baseline: middle; font-size: 10.2px;" transform="translate(114.296875,35)" y="0" x="0" id="text-entity-Timetable-e66100cc-8d20-57f9-92ba-4794626e2169-attr-1-key" class="er entityLabel">PK</text><rect height="22.091797828674316" width="51.640625" y="46" x="0" class="er attributeBoxEven"/><text style="dominant-baseline: middle; font-size: 10.2px;" transform="translate(5,57.04589891433716)" y="0" x="0" id="text-entity-Timetable-e66100cc-8d20-57f9-92ba-4794626e2169-attr-2-type" class="er entityLabel">string</text><rect height="22.091797828674316" width="57.65625" y="46" x="51.640625" class="er attributeBoxEven"/><text style="dominant-baseline: middle; font-size: 10.2px;" transform="translate(56.640625,57.04589891433716)" y="0" x="0" id="text-entity-Timetable-e66100cc-8d20-57f9-92ba-4794626e2169-attr-2-name" class="er entityLabel">name</text><rect height="22.091797828674316" width="21.5625" y="46" x="109.296875" class="er attributeBoxEven"/><text style="dominant-baseline: middle; font-size: 10.2px;" transform="translate(114.296875,57.04589891433716)" y="0" x="0" id="text-entity-Timetable-e66100cc-8d20-57f9-92ba-4794626e2169-attr-2-key" class="er entityLabel"/><rect height="22" width="51.640625" y="68.09179782867432" x="0" class="er attributeBoxOdd"/><text style="dominant-baseline: middle; font-size: 10.2px;" transform="translate(5,79.09179782867432)" y="0" x="0" id="text-entity-Timetable-e66100cc-8d20-57f9-92ba-4794626e2169-attr-3-type" class="er entityLabel">int</text><rect height="22" width="57.65625" y="68.09179782867432" x="51.640625" class="er attributeBoxOdd"/><text style="dominant-baseline: middle; font-size: 10.2px;" transform="translate(56.640625,79.09179782867432)" y="0" x="0" id="text-entity-Timetable-e66100cc-8d20-57f9-92ba-4794626e2169-attr-3-name" class="er entityLabel">accountId</text><rect height="22" width="21.5625" y="68.09179782867432" x="109.296875" class="er attributeBoxOdd"/><text style="dominant-baseline: middle; font-size: 10.2px;" transform="translate(114.296875,79.09179782867432)" y="0" x="0" id="text-entity-Timetable-e66100cc-8d20-57f9-92ba-4794626e2169-attr-3-key" class="er entityLabel">FK</text><rect height="22" width="51.640625" y="90.09179782867432" x="0" class="er attributeBoxEven"/><text style="dominant-baseline: middle; font-size: 10.2px;" transform="translate(5,101.09179782867432)" y="0" x="0" id="text-entity-Timetable-e66100cc-8d20-57f9-92ba-4794626e2169-attr-4-type" class="er entityLabel">datetime</text><rect height="22" width="57.65625" y="90.09179782867432" x="51.640625" class="er attributeBoxEven"/><text style="dominant-baseline: middle; font-size: 10.2px;" transform="translate(56.640625,101.09179782867432)" y="0" x="0" id="text-entity-Timetable-e66100cc-8d20-57f9-92ba-4794626e2169-attr-4-name" class="er entityLabel">createdAt</text><rect height="22" width="21.5625" y="90.09179782867432" x="109.296875" class="er attributeBoxEven"/><text style="dominant-baseline: middle; font-size: 10.2px;" transform="translate(114.296875,101.09179782867432)" y="0" x="0" id="text-entity-Timetable-e66100cc-8d20-57f9-92ba-4794626e2169-attr-4-key" class="er entityLabel"/><rect height="22.091796875" width="51.640625" y="112.09179782867432" x="0" class="er attributeBoxOdd"/><text style="dominant-baseline: middle; font-size: 10.2px;" transform="translate(5,123.13769626617432)" y="0" x="0" id="text-entity-Timetable-e66100cc-8d20-57f9-92ba-4794626e2169-attr-5-type" class="er entityLabel">datetime</text><rect height="22.091796875" width="57.65625" y="112.09179782867432" x="51.640625" class="er attributeBoxOdd"/><text style="dominant-baseline: middle; font-size: 10.2px;" transform="translate(56.640625,123.13769626617432)" y="0" x="0" id="text-entity-Timetable-e66100cc-8d20-57f9-92ba-4794626e2169-attr-5-name" class="er entityLabel">updatedAt</text><rect height="22.091796875" width="21.5625" y="112.09179782867432" x="109.296875" class="er attributeBoxOdd"/><text style="dominant-baseline: middle; font-size: 10.2px;" transform="translate(114.296875,123.13769626617432)" y="0" x="0" id="text-entity-Timetable-e66100cc-8d20-57f9-92ba-4794626e2169-attr-5-key" class="er entityLabel"/></g><g transform="translate(366.375,42.091796875 )" id="entity-Account-3e57c4b6-cd9d-514f-a2f6-ac5478bb332e"><rect height="156.36719036102295" width="130.859375" y="0" x="0" class="er entityBox"/><text style="dominant-baseline: middle; text-anchor: middle; font-size: 12px;" transform="translate(65.4296875,12)" y="0" x="0" id="text-entity-Account-3e57c4b6-cd9d-514f-a2f6-ac5478bb332e" class="er entityLabel">Account</text><rect height="22" width="51.640625" y="24" x="0" class="er attributeBoxOdd"/><text style="dominant-baseline: middle; font-size: 10.2px;" transform="translate(5,35)" y="0" x="0" id="text-entity-Account-3e57c4b6-cd9d-514f-a2f6-ac5478bb332e-attr-1-type" class="er entityLabel">int</text><rect height="22" width="57.65625" y="24" x="51.640625" class="er attributeBoxOdd"/><text style="dominant-baseline: middle; font-size: 10.2px;" transform="translate(56.640625,35)" y="0" x="0" id="text-entity-Account-3e57c4b6-cd9d-514f-a2f6-ac5478bb332e-attr-1-name" class="er entityLabel">id</text><rect height="22" width="21.5625" y="24" x="109.296875" class="er attributeBoxOdd"/><text style="dominant-baseline: middle; font-size: 10.2px;" transform="translate(114.296875,35)" y="0" x="0" id="text-entity-Account-3e57c4b6-cd9d-514f-a2f6-ac5478bb332e-attr-1-key" class="er entityLabel">PK</text><rect height="22.091797828674316" width="51.640625" y="46" x="0" class="er attributeBoxEven"/><text style="dominant-baseline: middle; font-size: 10.2px;" transform="translate(5,57.04589891433716)" y="0" x="0" id="text-entity-Account-3e57c4b6-cd9d-514f-a2f6-ac5478bb332e-attr-2-type" class="er entityLabel">string</text><rect height="22.091797828674316" width="57.65625" y="46" x="51.640625" class="er attributeBoxEven"/><text style="dominant-baseline: middle; font-size: 10.2px;" transform="translate(56.640625,57.04589891433716)" y="0" x="0" id="text-entity-Account-3e57c4b6-cd9d-514f-a2f6-ac5478bb332e-attr-2-name" class="er entityLabel">email</text><rect height="22.091797828674316" width="21.5625" y="46" x="109.296875" class="er attributeBoxEven"/><text style="dominant-baseline: middle; font-size: 10.2px;" transform="translate(114.296875,57.04589891433716)" y="0" x="0" id="text-entity-Account-3e57c4b6-cd9d-514f-a2f6-ac5478bb332e-attr-2-key" class="er entityLabel"/><rect height="22.091797828674316" width="51.640625" y="68.09179782867432" x="0" class="er attributeBoxOdd"/><text style="dominant-baseline: middle; font-size: 10.2px;" transform="translate(5,79.13769674301147)" y="0" x="0" id="text-entity-Account-3e57c4b6-cd9d-514f-a2f6-ac5478bb332e-attr-3-type" class="er entityLabel">string</text><rect height="22.091797828674316" width="57.65625" y="68.09179782867432" x="51.640625" class="er attributeBoxOdd"/><text style="dominant-baseline: middle; font-size: 10.2px;" transform="translate(56.640625,79.13769674301147)" y="0" x="0" id="text-entity-Account-3e57c4b6-cd9d-514f-a2f6-ac5478bb332e-attr-3-name" class="er entityLabel">password</text><rect height="22.091797828674316" width="21.5625" y="68.09179782867432" x="109.296875" class="er attributeBoxOdd"/><text style="dominant-baseline: middle; font-size: 10.2px;" transform="translate(114.296875,79.13769674301147)" y="0" x="0" id="text-entity-Account-3e57c4b6-cd9d-514f-a2f6-ac5478bb332e-attr-3-key" class="er entityLabel"/><rect height="22.091797828674316" width="51.640625" y="90.18359565734863" x="0" class="er attributeBoxEven"/><text style="dominant-baseline: middle; font-size: 10.2px;" transform="translate(5,101.22949457168579)" y="0" x="0" id="text-entity-Account-3e57c4b6-cd9d-514f-a2f6-ac5478bb332e-attr-4-type" class="er entityLabel">string</text><rect height="22.091797828674316" width="57.65625" y="90.18359565734863" x="51.640625" class="er attributeBoxEven"/><text style="dominant-baseline: middle; font-size: 10.2px;" transform="translate(56.640625,101.22949457168579)" y="0" x="0" id="text-entity-Account-3e57c4b6-cd9d-514f-a2f6-ac5478bb332e-attr-4-name" class="er entityLabel">role</text><rect height="22.091797828674316" width="21.5625" y="90.18359565734863" x="109.296875" class="er attributeBoxEven"/><text style="dominant-baseline: middle; font-size: 10.2px;" transform="translate(114.296875,101.22949457168579)" y="0" x="0" id="text-entity-Account-3e57c4b6-cd9d-514f-a2f6-ac5478bb332e-attr-4-key" class="er entityLabel"/><rect height="22" width="51.640625" y="112.27539348602295" x="0" class="er attributeBoxOdd"/><text style="dominant-baseline: middle; font-size: 10.2px;" transform="translate(5,123.27539348602295)" y="0" x="0" id="text-entity-Account-3e57c4b6-cd9d-514f-a2f6-ac5478bb332e-attr-5-type" class="er entityLabel">datetime</text><rect height="22" width="57.65625" y="112.27539348602295" x="51.640625" class="er attributeBoxOdd"/><text style="dominant-baseline: middle; font-size: 10.2px;" transform="translate(56.640625,123.27539348602295)" y="0" x="0" id="text-entity-Account-3e57c4b6-cd9d-514f-a2f6-ac5478bb332e-attr-5-name" class="er entityLabel">createdAt</text><rect height="22" width="21.5625" y="112.27539348602295" x="109.296875" class="er attributeBoxOdd"/><text style="dominant-baseline: middle; font-size: 10.2px;" transform="translate(114.296875,123.27539348602295)" y="0" x="0" id="text-entity-Account-3e57c4b6-cd9d-514f-a2f6-ac5478bb332e-attr-5-key" class="er entityLabel"/><rect height="22.091796875" width="51.640625" y="134.27539348602295" x="0" class="er attributeBoxEven"/><text style="dominant-baseline: middle; font-size: 10.2px;" transform="translate(5,145.32129192352295)" y="0" x="0" id="text-entity-Account-3e57c4b6-cd9d-514f-a2f6-ac5478bb332e-attr-6-type" class="er entityLabel">datetime</text><rect height="22.091796875" width="57.65625" y="134.27539348602295" x="51.640625" class="er attributeBoxEven"/><text style="dominant-baseline: middle; font-size: 10.2px;" transform="translate(56.640625,145.32129192352295)" y="0" x="0" id="text-entity-Account-3e57c4b6-cd9d-514f-a2f6-ac5478bb332e-attr-6-name" class="er entityLabel">updatedAt</text><rect height="22.091796875" width="21.5625" y="134.27539348602295" x="109.296875" class="er attributeBoxEven"/><text style="dominant-baseline: middle; font-size: 10.2px;" transform="translate(114.296875,145.32129192352295)" y="0" x="0" id="text-entity-Account-3e57c4b6-cd9d-514f-a2f6-ac5478bb332e-attr-6-key" class="er entityLabel"/></g><rect height="14" width="17.71875" y="263.5509948730469" x="134.32862854003906" class="er relationshipLabelBox"/><text style="text-anchor: middle; dominant-baseline: middle; font-size: 12px;" y="270.5509948730469" x="143.18800354003906" id="rel1" class="er relationshipLabel">has</text><rect height="14" width="17.71875" y="749.4470825195312" x="150.92617797851562" class="er relationshipLabelBox"/><text style="text-anchor: middle; dominant-baseline: middle; font-size: 12px;" y="756.4470825195312" x="159.78555297851562" id="rel2" class="er relationshipLabel">has</text><rect height="14" width="44.109375" y="690.15966796875" x="405.2970886230469" class="er relationshipLabelBox"/><text style="text-anchor: middle; dominant-baseline: middle; font-size: 12px;" y="697.15966796875" x="427.3517761230469" id="rel3" class="er relationshipLabel">includes</text><rect height="14" width="26.796875" y="313.25750732421875" x="418.40655517578125" class="er relationshipLabelBox"/><text style="text-anchor: middle; dominant-baseline: middle; font-size: 12px;" y="320.25750732421875" x="431.80499267578125" id="rel4" class="er relationshipLabel">owns</text></svg>